<?xml version="1.0" encoding="UTF-8"?>
<svg xmlns="http://www.w3.org/2000/svg" xmlns:xlink="http://www.w3.org/1999/xlink" width="24px" height="24px" viewBox="0 0 24 24" version="1.1">
<g id="surface1">
<path style=" stroke:none;fill-rule:nonzero;fill:rgb(0%,0%,0%);fill-opacity:1;" d="M 12 0.199219 C 5.601562 0.199219 0.199219 5.601562 0.199219 12 C 0.199219 18.398438 5.398438 23.800781 12 23.800781 C 18.398438 23.800781 23.800781 18.601562 23.800781 12 C 23.800781 5.601562 18.398438 0.199219 12 0.199219 Z M 12 22.601562 C 6.199219 22.601562 1.398438 17.800781 1.398438 12 C 1.398438 6.199219 6.199219 1.398438 12 1.398438 C 17.800781 1.398438 22.601562 6.199219 22.601562 12 C 22.601562 17.800781 17.800781 22.601562 12 22.601562 Z M 12 22.601562 "/>
<path style=" stroke:none;fill-rule:nonzero;fill:rgb(0%,0%,0%);fill-opacity:1;" d="M 15.601562 5.199219 L 13 5.199219 C 10.398438 5.199219 10 7 10 8.601562 L 10 9.601562 L 8.398438 9.601562 C 8.199219 9.601562 8.199219 9.601562 8.199219 9.800781 L 8.199219 12.601562 C 8.199219 12.800781 8.199219 12.800781 8.398438 12.800781 L 10.199219 12.800781 L 10.199219 18.800781 C 10.199219 19 10.199219 19 10.398438 19 L 13 19 C 13.199219 19 13.199219 19 13.199219 18.800781 L 13.199219 12.800781 L 15.800781 12.800781 C 16 12.800781 16 12.800781 16 12.601562 L 16 9.800781 C 16 9.601562 16 9.601562 15.800781 9.601562 L 12.800781 9.601562 L 12.800781 8.199219 L 15.601562 8.199219 C 15.800781 8.199219 15.800781 8.199219 15.800781 8 L 15.601562 5.199219 C 15.800781 5.199219 15.800781 5.199219 15.601562 5.199219 Z M 15.601562 5.199219 "/>
</g>
</svg>
