<?xml version="1.0" encoding="UTF-8"?>
<svg xmlns="http://www.w3.org/2000/svg" xmlns:xlink="http://www.w3.org/1999/xlink" width="24px" height="24px" viewBox="0 0 24 24" version="1.1">
<g id="surface1">
<path style=" stroke:none;fill-rule:nonzero;fill:rgb(0%,0%,0%);fill-opacity:1;" d="M 12.007812 1.859375 C 6.417969 1.859375 1.867188 6.410156 1.867188 12 C 1.867188 17.589844 6.417969 22.140625 12.007812 22.140625 C 17.597656 22.140625 22.144531 17.589844 22.144531 12 C 22.144531 6.410156 17.597656 1.859375 12.007812 1.859375 Z M 12.007812 21.140625 C 6.96875 21.140625 2.867188 17.039062 2.867188 12 C 2.867188 6.960938 6.96875 2.859375 12.007812 2.859375 C 17.046875 2.859375 21.144531 6.960938 21.144531 12 C 21.144531 17.039062 17.046875 21.140625 12.007812 21.140625 Z M 12.007812 21.140625 "/>
<path style=" stroke:none;fill-rule:nonzero;fill:rgb(0%,0%,0%);fill-opacity:1;" d="M 15.132812 6.050781 L 12.933594 6.050781 C 12.925781 6.050781 12.921875 6.050781 12.917969 6.050781 C 10.695312 6.058594 10.40625 7.609375 10.40625 8.964844 C 10.402344 8.976562 10.402344 8.988281 10.402344 9.003906 L 10.402344 9.953125 L 8.882812 9.953125 C 8.789062 9.953125 8.714844 10.027344 8.714844 10.121094 L 8.714844 12.46875 C 8.714844 12.558594 8.789062 12.632812 8.882812 12.632812 L 10.402344 12.632812 L 10.402344 17.78125 C 10.402344 17.875 10.476562 17.949219 10.566406 17.949219 L 12.785156 17.949219 C 12.878906 17.949219 12.953125 17.875 12.953125 17.78125 L 12.953125 12.632812 L 15.132812 12.632812 C 15.222656 12.632812 15.296875 12.558594 15.296875 12.46875 L 15.296875 10.121094 C 15.296875 10.03125 15.222656 9.953125 15.132812 9.953125 L 12.785156 9.953125 L 12.785156 8.695312 L 15.132812 8.695312 C 15.222656 8.695312 15.296875 8.617188 15.296875 8.527344 L 15.296875 6.21875 C 15.296875 6.125 15.222656 6.050781 15.132812 6.050781 Z M 15.132812 6.050781 "/>
</g>
</svg>
